<svg version="1.1" xmlns="http://www.w3.org/2000/svg"
     style="display: block;" viewBox="0 0 1240 1240"
     width="1240" height="1240" preserveAspectRatio="none">

  <defs>
    <linearGradient id="coralGradient" x1="0%" y1="0%" x2="70%" y2="100%">
      <stop offset="0%"   stop-color="#6cd47a"/>
      <stop offset="30%"  stop-color="#4fb35e"/>
      <stop offset="65%"  stop-color="#3a9a4c"/>
      <stop offset="100%" stop-color="#2d8040"/>
    </linearGradient>
  </defs>

  <path transform="translate(0,0)"
        fill="url(#coralGradient)"
        d="M 600.109 204.438 C 662.504 208.052 679.855 292.098 710.105 331.522 C 725.668 351.806 742.321 321.668 749.993 308.973 C 767.375 280.211 792.627 243.572 830.756 244.133 C 859.317 244.993 880.188 279.156 867.176 306.058 C 845.423 351.034 798.163 376.671 775.201 421.295 C 755.523 455.855 752.922 494.381 747.636 532.823 C 741.211 579.541 726.342 623.498 707.837 666.657 C 699.801 685.397 690.679 705.975 685.169 725.341 C 664.874 796.667 715.077 773.048 749.247 745.575 C 806.286 699.716 831.598 645.363 839.919 573.579 C 842.782 548.586 851.794 517.529 868.497 498.344 C 885.299 480.029 918.381 474.804 936.98 494.185 C 965.376 525.911 938.168 589.593 923.995 622.112 C 913.566 646.041 905.598 656.282 905.812 682.899 L 915.177 687.737 C 943.665 686.577 969.199 671.277 999.594 676.113 C 1033.4 681.493 1042.3 724.819 1019.55 746.716 C 993.89 771.41 955.871 771.697 922.612 775.836 C 906.451 777.803 890.383 780.469 874.454 783.828 C 792.306 800.982 715.344 861.931 687.992 943.125 C 678.388 971.635 683.731 1003.49 654.325 1023.74 C 630.097 1040.43 603.718 1040 576.232 1035.61 C 519.659 1018.51 529.64 982.334 519.667 934.456 C 510.053 888.307 479.6 847.452 443.423 818.114 C 387.744 772.96 316.436 754.95 258.011 714.532 C 232.201 696.587 203.023 667.268 197.347 634.961 C 194.335 618.472 198.207 601.468 208.061 587.908 C 244.788 537.057 301.627 605.19 333.657 626.651 C 351.552 638.64 357.618 642.659 379.649 639.411 C 401.109 621.662 403.347 591.823 404.071 566.046 C 405.838 522.45 388.509 486.899 365.768 451.177 C 339.23 409.491 310.862 347.151 377.653 326.046 C 397.52 319.768 416.055 329.971 430.476 342.665 C 481.879 387.912 504.078 460.186 499.886 527.178 C 497.266 584.859 469.526 645.331 485.712 701.987 C 491.652 722.776 506.542 742.039 525.502 752.233 C 533.938 752.316 541.928 752.061 550.361 751.767 C 562.9 744.355 576.392 729.499 583.521 716.696 C 635.94 622.257 660.306 507.253 614.656 405.182 C 596.132 363.764 569.972 329.437 552.392 288.032 C 542.927 265.739 541.079 244.995 557.949 225.523 C 569.874 211.759 582.003 205.988 600.109 204.438 z"/>
</svg>
